<?xml version="1.0" standalone="no"?>
<!DOCTYPE svg PUBLIC "-//W3C//DTD SVG 20010904//EN"
 "http://www.w3.org/TR/2001/REC-SVG-20010904/DTD/svg10.dtd">
<svg version="1.0" xmlns="http://www.w3.org/2000/svg"
 width="1108.000000pt" height="1108.000000pt" viewBox="0 0 1108.000000 1108.000000"
 preserveAspectRatio="xMidYMid meet">
<metadata>
Created by potrace 1.11, written by Peter Selinger 2001-2013
</metadata>
<g transform="translate(0.000000,1108.000000) scale(0.100000,-0.100000)"
fill="#000000" stroke="none">
<path d="M4009 11073 c-1 -10 -5 -35 -13 -88 -25 -153 -29 -184 -32 -220 -1
-22 -3 -40 -4 -40 -4 0 -17 -74 -25 -145 -4 -30 -9 -58 -12 -63 -2 -4 -6 -31
-9 -60 -2 -28 -6 -63 -9 -77 -4 -14 -8 -41 -10 -60 -2 -19 -6 -51 -10 -70 -8
-44 -15 -85 -20 -130 -4 -35 -12 -82 -21 -130 -3 -14 -6 -38 -8 -55 -3 -26
-14 -99 -32 -220 -2 -16 -6 -41 -9 -55 -2 -14 -7 -43 -10 -65 -3 -22 -8 -53
-11 -70 -3 -16 -7 -43 -9 -60 -4 -34 -13 -97 -20 -135 -3 -14 -7 -43 -10 -65
-9 -72 -13 -99 -20 -135 -10 -58 -13 -73 -20 -130 -6 -53 -8 -64 -19 -120 -2
-14 -7 -47 -11 -75 -3 -27 -8 -59 -10 -70 -2 -11 -7 -40 -10 -65 -3 -25 -7
-55 -9 -67 -3 -11 -8 -43 -12 -70 -3 -26 -8 -57 -10 -68 -3 -11 -7 -38 -9 -60
-3 -22 -7 -51 -10 -65 -8 -44 -18 -114 -19 -140 -1 -14 -5 -31 -9 -37 -5 -8
-236 -11 -855 -12 -466 0 -863 0 -883 0 -40 -1 -36 10 -55 -136 -3 -22 -9 -56
-14 -75 -5 -19 -12 -60 -15 -90 -7 -54 -10 -69 -20 -120 -2 -14 -7 -43 -10
-65 -3 -23 -7 -50 -9 -62 -3 -12 -8 -43 -12 -70 -3 -26 -9 -57 -11 -68 -2 -11
-6 -36 -8 -55 -2 -19 -6 -44 -9 -55 -3 -11 -8 -42 -12 -70 -3 -27 -8 -53 -10
-56 -1 -3 -6 -30 -9 -60 -4 -30 -11 -73 -16 -97 -5 -24 -7 -47 -4 -52 3 -5 1
-11 -5 -15 -6 -4 -8 -11 -5 -16 4 -5 358 -9 896 -9 l890 0 -6 -42 c-3 -24 -7
-56 -9 -73 -4 -30 -10 -66 -26 -165 -5 -30 -11 -68 -14 -85 -2 -16 -8 -50 -12
-75 -4 -25 -8 -54 -9 -65 -2 -11 -8 -55 -14 -97 -7 -42 -13 -86 -14 -97 -1
-12 -5 -21 -10 -21 -4 0 -5 -4 -2 -10 3 -5 1 -38 -6 -72 -6 -35 -13 -79 -14
-98 -2 -19 -4 -35 -5 -35 -2 0 -4 -16 -15 -90 -4 -27 -9 -61 -11 -75 -3 -14
-7 -38 -8 -55 -2 -16 -5 -30 -6 -30 -1 0 -3 -13 -5 -30 -4 -41 -15 -116 -20
-140 -5 -26 -42 -266 -51 -330 -3 -27 -10 -60 -15 -73 -6 -15 -5 -21 1 -17 6
4 7 -2 1 -18 -5 -13 -12 -48 -16 -78 -4 -30 -8 -56 -10 -59 -2 -3 -6 -32 -9
-65 -4 -33 -9 -67 -11 -75 -2 -8 -7 -35 -10 -60 -3 -25 -8 -52 -10 -60 -2 -8
-6 -37 -10 -65 -11 -89 -16 -124 -60 -390 l-5 -30 -914 0 c-503 0 -916 -2
-919 -5 -3 -3 -8 -27 -11 -54 -4 -27 -9 -52 -10 -55 -2 -3 -7 -28 -10 -56 -4
-27 -9 -57 -11 -65 -2 -8 -6 -28 -9 -45 -8 -47 -18 -118 -22 -140 -1 -11 -3
-20 -4 -20 -2 0 -6 -23 -15 -77 -8 -58 -12 -78 -18 -113 -20 -104 -39 -214
-41 -235 -2 -14 -6 -38 -9 -55 -9 -39 -17 -92 -23 -135 -2 -19 -6 -42 -9 -50
-2 -8 -7 -30 -10 -47 -5 -31 -3 -33 22 -34 16 0 435 -1 933 -2 898 -2 905 -2
903 -22 -1 -11 -5 -38 -9 -60 -3 -22 -7 -52 -8 -67 0 -16 -3 -28 -6 -28 -3 0
-6 -15 -7 -32 -1 -18 -3 -44 -6 -58 -6 -28 -23 -143 -31 -210 -2 -14 -6 -38
-9 -55 -4 -16 -9 -48 -12 -70 -4 -22 -8 -49 -10 -60 -3 -20 -13 -92 -20 -150
-2 -16 -4 -30 -5 -30 -3 0 -8 -31 -15 -90 -3 -33 -8 -62 -10 -65 -1 -3 -6 -30
-10 -60 -4 -30 -8 -68 -11 -85 -2 -16 -6 -41 -9 -55 -3 -14 -8 -45 -11 -70 -3
-25 -8 -54 -10 -65 -2 -11 -6 -38 -9 -60 -2 -22 -6 -49 -9 -60 -2 -11 -7 -42
-11 -70 -4 -27 -9 -62 -11 -78 -2 -15 -6 -39 -8 -55 -2 -15 -9 -56 -15 -92 -6
-36 -13 -81 -15 -100 -3 -19 -8 -53 -11 -75 -3 -22 -8 -53 -10 -70 -2 -16 -4
-30 -5 -30 -1 0 -3 -11 -4 -25 -2 -14 -6 -41 -9 -60 -12 -62 -25 -154 -32
-224 -3 -26 -7 -52 -10 -56 -5 -8 -17 -93 -18 -127 -1 -13 -4 -23 -7 -23 -4 0
-6 -12 -5 -27 1 -25 -3 -50 -18 -128 -4 -17 -19 -119 -22 -150 -1 -5 -5 -30
-9 -55 -4 -25 -9 -56 -11 -70 -5 -33 -17 -111 -21 -132 -3 -17 33 -18 630 -18
l633 0 7 37 c3 21 11 70 17 108 5 39 12 81 14 95 2 14 6 43 10 65 12 75 14 90
21 140 3 28 8 53 10 57 2 3 6 28 9 55 3 26 8 63 10 80 3 18 7 48 10 65 2 18 7
44 10 58 3 14 7 41 9 60 3 19 9 64 15 100 6 36 13 83 16 105 2 22 7 54 10 70
9 51 14 88 20 130 10 70 14 99 25 160 6 33 13 82 16 109 3 27 10 60 15 73 6
18 6 22 -3 17 -7 -5 -8 -3 -3 6 5 7 9 25 11 39 1 14 3 26 4 26 1 0 3 11 5 25
6 44 15 104 20 140 17 101 26 160 30 195 2 17 4 30 5 30 1 0 3 9 4 20 7 52 19
132 22 150 5 27 17 117 17 133 0 6 4 12 9 12 5 0 6 4 3 10 -3 5 -1 36 4 67 6
32 13 78 17 103 3 25 8 54 10 65 8 51 14 94 19 139 3 27 7 52 10 55 2 4 6 32
9 62 3 30 8 65 11 79 3 14 11 59 17 101 l11 77 1081 -2 1081 -1 -1 -25 c-1
-31 -12 -107 -24 -180 -16 -94 -23 -142 -36 -235 -1 -11 -3 -20 -4 -20 -1 0
-3 -13 -5 -30 -2 -16 -6 -48 -9 -70 -4 -22 -8 -56 -11 -75 -6 -40 -13 -82 -20
-125 -3 -16 -8 -50 -11 -75 -3 -25 -7 -52 -9 -60 -5 -19 -18 -110 -19 -132 0
-10 -3 -18 -6 -18 -3 0 -5 -12 -6 -27 0 -28 -11 -109 -19 -148 -3 -11 -7 -38
-9 -60 -3 -22 -7 -51 -10 -64 -3 -14 -8 -47 -11 -74 -3 -28 -8 -53 -10 -57 -2
-3 -6 -33 -9 -66 -2 -32 -7 -66 -11 -75 -3 -8 -8 -33 -10 -55 -2 -21 -7 -59
-11 -84 -3 -25 -7 -53 -7 -62 -1 -10 -4 -18 -7 -18 -3 0 -5 -15 -6 -33 -1 -30
-7 -76 -19 -137 -3 -14 -7 -41 -9 -60 -9 -62 -16 -114 -21 -140 -3 -14 -7 -45
-11 -70 -3 -25 -7 -56 -10 -70 -3 -14 -7 -40 -9 -59 -3 -19 -14 -91 -25 -160
-10 -69 -22 -146 -25 -171 -3 -25 -8 -52 -10 -60 -2 -8 -7 -40 -10 -70 -4 -30
-11 -77 -16 -105 -5 -27 -12 -71 -15 -97 l-6 -48 626 0 c589 0 626 1 627 18 0
9 2 26 4 37 2 11 7 42 10 69 4 27 9 58 11 70 4 22 14 85 19 126 2 14 6 39 9
55 9 59 17 110 21 140 2 17 8 59 14 95 6 36 13 83 16 105 4 22 8 51 11 65 3
14 7 43 10 65 6 46 11 76 19 125 3 19 7 49 9 65 3 17 7 47 10 67 3 21 8 53 11
70 3 18 7 47 10 63 3 17 8 46 11 65 3 19 8 51 10 70 2 19 7 51 10 70 3 19 8
49 10 65 6 46 12 90 14 90 1 0 3 14 5 30 9 68 15 111 20 134 2 12 7 42 9 65 3
22 10 65 16 95 5 29 8 57 5 61 -3 5 -1 11 5 15 6 4 8 10 6 13 -2 4 -1 28 4 52
4 25 11 65 14 90 3 25 8 56 11 70 3 14 7 43 10 65 5 39 14 104 20 135 2 8 6
35 9 60 3 25 8 54 10 65 2 11 7 40 10 65 3 25 8 55 10 66 8 42 17 99 21 130 2
27 10 79 20 134 1 8 6 40 11 70 4 30 9 58 10 63 1 4 2 15 3 26 1 18 26 19 902
19 495 0 902 2 904 4 4 4 12 58 20 143 2 17 4 30 5 30 1 0 3 12 5 28 4 28 24
162 30 200 6 36 14 89 20 142 4 28 10 66 14 85 4 19 7 45 6 57 -1 13 1 23 4
23 3 0 6 10 7 23 0 30 15 140 19 147 1 3 6 32 10 65 3 33 11 82 16 109 5 26 6
52 3 57 -3 5 -2 9 3 9 12 0 12 58 -1 63 -6 2 -411 3 -899 3 l-888 -1 6 55 c3
30 7 62 10 70 2 8 6 35 9 60 3 25 8 56 11 69 2 13 7 49 11 80 3 31 8 59 10 62
1 3 6 28 9 55 4 27 9 57 12 67 3 11 7 39 9 65 2 25 6 52 8 61 3 9 8 41 11 71
3 30 9 63 12 73 3 11 6 29 8 40 8 66 17 133 21 151 2 12 7 41 10 66 3 25 8 54
10 65 7 37 23 137 30 190 2 17 6 46 9 65 3 19 8 49 10 65 2 17 6 44 9 60 6 34
23 140 31 200 4 22 8 51 11 65 3 14 7 43 10 65 6 48 11 79 19 125 3 19 8 51
10 70 2 19 6 46 9 60 6 34 16 97 22 140 2 19 9 61 15 92 5 32 12 74 14 95 2
21 7 49 10 63 2 13 6 39 7 57 1 18 5 33 8 33 3 0 5 10 6 23 1 12 3 39 5 60 l3
37 942 0 942 0 6 28 c6 32 23 129 32 192 10 67 12 83 18 106 2 12 7 45 11 74
4 29 9 62 11 74 4 22 32 190 40 239 2 15 7 42 10 60 3 17 7 41 9 52 10 69 23
157 35 225 23 132 23 120 -7 121 -16 0 -443 0 -950 1 l-923 0 5 26 c10 64 15
95 36 222 24 155 27 172 33 220 5 38 13 90 21 130 3 14 7 41 10 60 9 69 15
105 20 130 3 14 8 43 10 64 3 22 7 51 10 65 2 14 7 46 11 71 3 25 7 54 9 65 2
11 6 38 10 60 3 22 10 63 15 90 5 28 12 73 15 100 3 28 8 59 10 70 3 11 7 36
10 55 2 19 6 44 9 55 2 11 7 43 10 70 4 28 9 57 11 65 2 8 6 35 9 60 4 25 8
56 10 70 15 88 46 283 51 320 1 8 4 29 8 45 3 17 9 53 12 80 3 28 8 57 10 65
2 8 6 35 9 60 3 25 8 56 11 70 3 14 7 41 10 60 3 19 7 44 9 56 2 12 7 45 11
75 4 30 8 56 10 59 2 3 6 30 10 60 3 30 8 66 10 80 11 68 16 97 21 123 l6 27
-626 0 -625 0 -6 -32 c-3 -18 -8 -46 -10 -63 -2 -16 -4 -30 -5 -30 -1 0 -3
-13 -5 -30 -6 -48 -14 -98 -19 -121 -2 -12 -7 -45 -11 -75 -3 -30 -8 -61 -10
-69 -2 -8 -7 -35 -10 -60 -4 -25 -11 -67 -16 -93 -5 -26 -8 -51 -8 -55 1 -4 0
-9 -1 -12 -4 -11 -10 -47 -14 -90 -3 -25 -5 -45 -6 -45 -2 0 -7 -31 -26 -155
-9 -58 -17 -112 -19 -120 -1 -8 -6 -35 -10 -60 -3 -25 -9 -58 -12 -75 -3 -16
-7 -46 -9 -65 -2 -19 -6 -46 -8 -60 -3 -14 -8 -43 -11 -65 -3 -23 -8 -52 -10
-65 -8 -39 -22 -122 -29 -180 -2 -14 -7 -45 -11 -70 -4 -25 -9 -58 -10 -75 -2
-16 -5 -37 -9 -45 -3 -8 -8 -33 -10 -55 -3 -22 -8 -56 -10 -75 -3 -19 -8 -53
-11 -75 -3 -22 -7 -51 -10 -65 -3 -14 -7 -38 -10 -55 -2 -16 -6 -39 -8 -50 -3
-11 -8 -42 -11 -70 -4 -27 -14 -93 -22 -145 -9 -52 -17 -104 -19 -115 -4 -34
-17 -119 -21 -140 -2 -10 -6 -37 -9 -60 -3 -22 -10 -62 -15 -90 -13 -67 -18
-98 -19 -112 -1 -8 -270 -11 -1081 -11 -594 0 -1082 3 -1084 7 -2 3 5 56 15
116 10 61 21 130 23 155 3 25 7 55 10 66 8 37 25 146 40 264 5 38 17 111 22
145 3 17 7 43 9 58 2 16 6 40 9 55 3 15 8 44 11 65 3 20 7 52 10 70 3 19 8 49
10 68 3 19 7 48 10 64 3 17 7 50 10 75 2 25 4 45 5 45 3 0 9 40 15 89 3 27 8
52 9 55 2 3 7 31 11 61 7 61 11 90 18 135 13 74 20 121 22 135 8 61 17 126 21
144 2 12 7 41 10 66 3 25 7 52 9 60 4 16 16 90 20 130 2 14 4 25 5 25 1 0 3
14 4 30 3 31 13 97 23 150 2 17 6 44 8 60 2 17 6 44 9 60 3 17 7 48 10 70 3
22 8 51 10 65 3 14 8 43 11 65 3 23 7 50 9 60 2 11 7 40 10 65 3 25 10 69 15
98 l8 52 -633 0 c-349 0 -634 -3 -635 -7z m2817 -4101 c-2 -4 -8 -34 -11 -67
-9 -77 -10 -78 -16 -90 -3 -5 -5 -22 -4 -37 1 -16 -1 -28 -4 -28 -3 0 -6 -12
-7 -27 0 -25 -19 -160 -28 -210 -3 -11 -7 -38 -10 -59 -11 -71 -18 -119 -22
-139 -3 -11 -7 -40 -10 -65 -7 -51 -9 -64 -19 -135 -4 -27 -8 -56 -8 -62 0 -7
-4 -13 -9 -13 -5 0 -6 -4 -3 -10 3 -5 1 -36 -4 -67 -6 -32 -13 -78 -17 -103
-3 -25 -8 -56 -11 -70 -2 -14 -5 -38 -8 -55 -2 -16 -6 -43 -9 -60 -3 -16 -8
-50 -11 -75 -6 -48 -12 -85 -15 -85 -1 0 -3 -13 -4 -30 -4 -35 -14 -109 -22
-145 -2 -14 -6 -38 -9 -55 -2 -16 -6 -46 -10 -66 -3 -20 -7 -51 -9 -70 -2 -19
-7 -50 -11 -69 -4 -19 -9 -48 -11 -65 -2 -16 -5 -41 -8 -55 -2 -14 -7 -45 -11
-70 -3 -25 -8 -58 -11 -75 -7 -39 -12 -70 -19 -125 -3 -25 -10 -67 -15 -95 -5
-27 -12 -68 -15 -90 -3 -22 -7 -51 -10 -65 -2 -14 -7 -47 -10 -75 -3 -27 -10
-52 -15 -55 -4 -3 -491 -5 -1082 -5 l-1073 0 1 35 c0 19 5 64 12 100 6 36 14
85 18 110 8 62 11 79 18 123 3 20 8 54 11 75 3 20 12 80 20 132 8 52 17 109
19 125 2 17 5 30 6 30 1 0 3 16 6 35 2 19 6 49 9 65 7 35 13 82 19 128 2 17 9
59 15 92 6 33 13 83 17 110 3 28 8 59 10 70 5 28 13 73 19 118 3 20 8 54 12
75 3 20 7 52 7 69 1 18 3 33 6 33 3 0 6 8 6 18 1 19 10 81 24 162 5 30 12 75
15 100 3 25 8 56 10 70 12 68 17 98 20 125 2 17 6 41 9 55 2 14 7 45 10 70 3
25 8 54 10 65 2 11 7 40 11 65 3 25 9 59 12 75 6 37 10 67 17 120 3 22 8 51
11 65 5 26 16 112 18 143 1 15 9 17 49 16 26 -2 50 -1 52 2 8 8 2077 -1 2072
-9z"/>
</g>
</svg>
