<?xml version="1.0" encoding="utf-8"?>
<!-- Generator: Adobe Illustrator 19.0.0, SVG Export Plug-In . SVG Version: 6.00 Build 0)  -->
<svg version="1.1" id="Capa_1" xmlns="http://www.w3.org/2000/svg" xmlns:xlink="http://www.w3.org/1999/xlink" x="0px" y="0px"
	 viewBox="0 0 50 50" style="enable-background:new 0 0 50 50;" xml:space="preserve">
<style type="text/css">
	.st0{fill:#D35400;}
	.st1{fill:#FFFFFF;}
</style>
<circle id="XMLID_1_" class="st0" cx="25" cy="25" r="25"/>
<g id="XMLID_4_">
	<path id="XMLID_5_" class="st1" d="M38.5,25.2c0.1,0.2,0.2,0.3,0.1,0.4c0,0.1-0.1,0.2-0.2,0.2c-0.1,0.1-0.2,0.1-0.4,0.1
		c-0.1,0-0.2,0-0.3,0c-0.7,0-1.4,0.1-2,0.2c-0.6,0.1-1.3,0.2-2,0.3c-0.7,0.1-1.4,0.3-2.1,0.5c-0.7,0.2-1.6,0.5-2.5,0.8
		c1,0.3,1.8,0.6,2.4,0.8c1.8,0.6,3.1,1.8,3.9,3.5c0.7,1.5,0.9,3,0.5,4.3c-0.4,1.2-1.2,2.5-2.5,3.8c-1.3,1.3-2.7,2.4-4.4,3.3
		c-1.8,1-3.6,1.5-5.3,1.6c-1.9,0.1-3.6-0.3-5.1-1.3c-2-1.4-3.2-2.7-3.6-3.9c-0.5-1.8,0.5-3.8,3.2-5.9c3.5-2.8,6.3-4.7,8.3-5.7
		c-0.4-0.2-1.2-0.6-2.6-1.1c-1.2-0.5-2.1-0.9-2.8-1.3c-2.2-1.2-3.7-2.9-4.5-5.1c-0.8-2-1-4-0.7-6c0.2-1.8,0.9-3.5,1.9-5.1
		c1-1.5,2.2-2.6,3.6-3.5c1.4-0.9,2.8-1.3,4.2-1.2c1.7,0.1,3.2,0.8,4.5,2.1c1.4,1.4,2,3.1,1.7,5c-0.2,1.7-1.4,3.2-3.6,4.7
		C27.1,17.5,26,18,25,18.4c1-3.1,1.4-6.1,1.4-8.9c0-1.3-0.2-2.2-0.5-2.8c-0.3-0.6-0.7-0.8-1.2-0.5c-2.4,1.5-3.7,4.3-3.9,8.4
		c-0.2,3,0.1,5.4,0.8,7.2c0.6,1.6,1.5,2.9,2.6,3.7c0.8,0.6,2.2,1.3,4.1,1.9c2.6-1.1,5.4-1.7,8.6-2L38.5,25.2z M24.4,40.3
		c2.8-2.3,4.4-4.6,4.8-6.8c0.2-1.3,0.1-2.3-0.3-3.2c-0.4-0.7-1-1.3-2-1.8c-0.6,0.3-1.2,0.7-1.7,1c-2.4,1.7-4.4,4.1-5.9,7.1
		c-0.7,1.4-1.1,2.6-1.2,3.6c-0.1,1.1,0.1,1.9,0.7,2.4c0.5,0.4,1.2,0.3,2.3-0.1C22.2,42,23.2,41.3,24.4,40.3z"/>
</g>
</svg>
